<svg xmlns="http://www.w3.org/2000/svg" viewBox="0 0 772.24 452.79"><defs><style>.cls-1{fill:#1565c0;}.cls-1,.cls-2{fill-rule:evenodd;}.cls-2{fill:#607d8b;}.cls-3,.cls-4{fill:#fff;}.cls-4{font-size:6.25px;font-family:Righteous-Regular, Righteous;}.cls-5{letter-spacing:-0.01em;}.cls-6{letter-spacing:0em;}.cls-7{letter-spacing:0em;}.cls-8{letter-spacing:-0.01em;}.cls-9{letter-spacing:-0.01em;}.cls-10{letter-spacing:-0.01em;}</style></defs><g id="Layer_2" data-name="Layer 2"><g id="Layer_1-2" data-name="Layer 1"><polygon class="cls-1" points="421.83 240.13 312.28 240.13 429.41 452.79 545.77 452.79 421.83 240.13"/><polygon class="cls-1" points="243.99 239.93 134.06 239.93 257.8 452.79 367.93 452.79 243.99 239.93"/><path class="cls-2" d="M5.25,0H627.49S748.9,15.18,772.24,131.92v65.37s-10.5,92.23-115.57,129.59H641.88v8.17h6.62L711,444.2H600.05l-115-204.88,136.15-.44s55-9.19,54.72-71.65c0,0,5.84-48.15-54.57-71.79l-569.3-.38L0,0Z"/><polygon class="cls-2" points="600.05 444.2 604.11 451.8 715.77 451.84 710.96 444.2 600.05 444.2"/><polygon class="cls-2" points="648.5 335.05 644.36 326.88 641.88 326.88 641.88 335.05 648.5 335.05"/><path class="cls-3" d="M115,96c0,1.2,18.12,1.2,18.12,0s-1.5-2.33-3.81-3c.53-2.35.3-4.22-.74-4.82a1.62,1.62,0,0,0-.83-.2A6.13,6.13,0,0,0,124,90a6.22,6.22,0,0,0-3.69-2,1.69,1.69,0,0,0-.84.21c-1,.6-1.27,2.46-.73,4.8C116.47,93.7,115,94.84,115,96Zm6.5-1.47c.29-.5.59-1,.89-1.41.55-.05,1.11-.07,1.67-.07s1.12,0,1.66.07c.31.44.61.91.9,1.4s.53,1,.76,1.47c-.22.5-6.41.51-6.64,0C120.94,95.54,121.19,95.05,121.47,94.56Zm-1.19.48a15.12,15.12,0,0,1-.51-1.47c.48-.11,1-.21,1.52-.29-.18.28-.36.57-.53.87S120.43,94.75,120.28,95ZM124,91.1a15.27,15.27,0,0,1,1,1.18l-1,0-1,0A15.14,15.14,0,0,1,124,91.1Zm2.75,2.18c.53.08,1,.17,1.52.29-.14.48-.31,1-.5,1.46-.15-.3-.31-.59-.49-.89S127,93.56,126.77,93.28Zm3.35.88c1.3.56,2.15,1.29,2.15,1.87s-3.66.77-4,0a16.6,16.6,0,0,0,.82-2.24C129.45,93.9,129.8,94,130.12,94.16Zm-2-5.27c.5.29.72,1.38.55,2.79,0,.35-.11.72-.19,1.09a16.05,16.05,0,0,0-2.34-.4,17.35,17.35,0,0,0-1.54-1.85,5.41,5.41,0,0,1,3.1-1.73A.77.77,0,0,1,128.13,88.89Zm-8.76,2.81c-.17-1.41,0-2.51.54-2.8a.87.87,0,0,1,.42-.09,5.49,5.49,0,0,1,3.11,1.72,17,17,0,0,0-1.53,1.84,16.41,16.41,0,0,0-2.35.41C119.48,92.4,119.41,92,119.37,91.7ZM118,94.16c.32-.13.66-.25,1-.37A17.74,17.74,0,0,0,119.8,96c-.34.77-4,.57-4,0S116.64,94.72,118,94.16Z"/><circle class="cls-3" cx="124.03" cy="96.03" r="1.69"/><text class="cls-4" transform="translate(51.77 96.03)"><tspan class="cls-5">R</tspan><tspan class="cls-6" x="4.03" y="0">e</tspan><tspan class="cls-7" x="7.29" y="0">act and </tspan><tspan class="cls-8" x="31.67" y="0">W</tspan><tspan x="36.75" y="0">o</tspan><tspan class="cls-9" x="40.37" y="0">r</tspan><tspan x="42.89" y="0">dP</tspan><tspan class="cls-10" x="50.69" y="0">r</tspan><tspan x="53.22" y="0">ess</tspan></text><path class="cls-3" d="M134.75,96a7.78,7.78,0,0,0,4.38,7l-3.71-10.16A7.78,7.78,0,0,0,134.75,96Z"/><path class="cls-3" d="M147.77,95.64a4.14,4.14,0,0,0-.64-2.14,3.59,3.59,0,0,1-.77-1.82,1.35,1.35,0,0,1,1.31-1.38h.1A7.76,7.76,0,0,0,136,91.77h.5c.81,0,2.07-.1,2.07-.1a.32.32,0,0,1,.05.64s-.42.05-.89.07l2.83,8.42,1.7-5.1-1.21-3.32c-.42,0-.82-.07-.82-.07a.32.32,0,0,1,.05-.64s1.29.1,2.05.1,2.07-.1,2.07-.1a.32.32,0,0,1,0,.64s-.42.05-.89.07l2.81,8.36.78-2.6A9.52,9.52,0,0,0,147.77,95.64Z"/><path class="cls-3" d="M142.66,96.71l-2.33,6.78a7.72,7.72,0,0,0,4.77-.12.54.54,0,0,1,0-.11Z"/><path class="cls-3" d="M149.34,92.31a6.47,6.47,0,0,1,0,.8,7.23,7.23,0,0,1-.59,2.78l-2.37,6.86A7.77,7.77,0,0,0,150.29,96,7.65,7.65,0,0,0,149.34,92.31Z"/><path class="cls-3" d="M142.52,87a9.06,9.06,0,1,0,9.06,9A9.07,9.07,0,0,0,142.52,87Zm0,17.7A8.65,8.65,0,1,1,151.16,96,8.66,8.66,0,0,1,142.52,104.68Z"/></g></g></svg>